ply
format ascii 1.0
element vertex 400
property double x
property double y
property double z
property double vx
property double vy
property double vz
property double s
element face 361
property list uchar int vertex_indices
end_header
0 0 0 0 0 0 130
1 0 0 0 0 0 130
2 0 0 0 0 0 130
3 0 0 0 0 0 130
4 0 0 0 0 0 130
5 0 0 0 0 0 130
6 0 0 0 0 0 130
7 0 0 0 0 0 130
8 0 0 0 0 0 130
9 0 0 0 0 0 130
10 0 0 0 0 0 130
11 0 0 0 0 0 130
12 0 0 0 0 0 130
13 0 0 0 0 0 130
14 0 0 0 0 0 130
15 0 0 0 0 0 130
16 0 0 0 0 0 130
17 0 0 0 0 0 130
18 0 0 0 0 0 130
19 0 0 0 0 0 130
0 1 0 0 0 0 130
1 1 0 0 0 0 130
2 1 0 0 0 0 130
3 1 0 0 0 0 130
4 1 0 0 0 0 130
5 1 0 0 0 0 130
6 1 0 0 0 0 130
7 1 0 0 0 0 130
8 1 0 0 0 0 130
9 1 0 0 0 0 130
10 1 0 0 0 0 130
11 1 0 0 0 0 130
12 1 0 0 0 0 130
13 1 0 0 0 0 130
14 1 0 0 0 0 130
15 1 0 0 0 0 130
16 1 0 0 0 0 130
17 1 0 0 0 0 130
18 1 0 0 0 0 130
19 1 0 0 0 0 130
0 2 0 0 0 0 130
1 2 0 0 0 0 130
2 2 0 0 0 0 130
3 2 0 0 0 0 130
4 2 0 0 0 0 130
5 2 0 0 0 0 130
6 2 0 0 0 0 130
7 2 0 0 0 0 130
8 2 0 0 0 0 130
9 2 0 0 0 0 131
10 2 0 0 0 0 132
11 2 0 0 0 0 130
12 2 0 0 0 0 131
13 2 0 0 0 0 130
14 2 0 0 0 0 130
15 2 0 0 0 0 130
16 2 0 0 0 0 130
17 2 0 0 0 0 130
18 2 0 0 0 0 130
19 2 0 0 0 0 130
0 3 0 0 0 0 130
1 3 0 0 0 0 130
2 3 0 0 0 0 130
3 3 0 0 0 0 130
4 3 0 0 0 0 130
5 3 0 0 0 0 131
6 3 0 0 0 0 130
7 3 0 0 0 0 130
8 3 0 0 0 0 131
9 3 0 0 0 0 125
10 3 0 0 0 0 126
11 3 0 0 0 0 132
12 3 0 0 0 0 124
13 3 0 0 0 0 129
14 3 0 0 0 0 130
15 3 0 0 0 0 130
16 3 0 0 0 0 130
17 3 0 0 0 0 130
18 3 0 0 0 0 130
19 3 0 0 0 0 130
0 4 0 0 0 0 130
1 4 0 0 0 0 130
2 4 0 0 0 0 130
3 4 0 0 0 0 130
4 4 0 0 0 0 131
5 4 0 0 0 0 124
6 4 0 0 0 0 110
7 4 0 0 0 0 120
8 4 0 0 0 0 114
9 4 0 0 0 0 106
10 4 0 0 0 0 112
11 4 0 0 0 0 116
12 4 0 0 0 0 101
13 4 0 0 0 0 111
14 4 0 0 0 0 120
15 4 0 0 0 0 131
16 4 0 0 0 0 130
17 4 0 0 0 0 130
18 4 0 0 0 0 130
19 4 0 0 0 0 130
0 5 0 0 0 0 130
1 5 0 0 0 0 130
2 5 0 0 0 0 130
3 5 0 0 0 0 131
4 5 0 0 0 0 124
5 5 0 0 0 0 97
6 5 0 0 0 0 93
7 5 0 0 0 0 100
8 5 0 0 0 0 76
9 5 0 0 0 0 66
10 5 0 0 0 0 78
11 5 0 0 0 0 73
12 5 0 0 0 0 93
13 5 0 0 0 0 107
14 5 0 0 0 0 96
15 5 0 0 0 0 119
16 5 0 0 0 0 131
17 5 0 0 0 0 130
18 5 0 0 0 0 130
19 5 0 0 0 0 130
0 6 0 0 0 0 130
1 6 0 0 0 0 130
2 6 0 0 0 0 130
3 6 0 0 0 0 130
4 6 0 0 0 0 111
5 6 0 0 0 0 106
6 6 0 0 0 0 89
7 6 0 0 0 0 103
8 6 0 0 0 0 132
9 6 0 0 0 0 72
10 6 0 0 0 0 36
11 6 0 0 0 0 109
12 6 0 0 0 0 113
13 6 0 0 0 0 90
14 6 0 0 0 0 91
15 6 0 0 0 0 106
16 6 0 0 0 0 128
17 6 0 0 0 0 131
18 6 0 0 0 0 130
19 6 0 0 0 0 130
0 7 0 0 0 0 130
1 7 0 0 0 0 130
2 7 0 0 0 0 131
3 7 0 0 0 0 124
4 7 0 0 0 0 103
5 7 0 0 0 0 96
6 7 0 0 0 0 108
7 7 0 0 0 0 89
8 7 0 0 0 0 232
9 7 0 0 0 0 219
10 7 0 0 0 0 189
11 7 0 0 0 0 210
12 7 0 0 0 0 92
13 7 0 0 0 0 103
14 7 0 0 0 0 98
15 7 0 0 0 0 117
16 7 0 0 0 0 129
17 7 0 0 0 0 130
18 7 0 0 0 0 130
19 7 0 0 0 0 130
0 8 0 0 0 0 130
1 8 0 0 0 0 130
2 8 0 0 0 0 130
3 8 0 0 0 0 130
4 8 0 0 0 0 112
5 8 0 0 0 0 76
6 8 0 0 0 0 117
7 8 0 0 0 0 184
8 8 0 0 0 0 245
9 8 0 0 0 0 225
10 8 0 0 0 0 214
11 8 0 0 0 0 255
12 8 0 0 0 0 226
13 8 0 0 0 0 159
14 8 0 0 0 0 71
15 8 0 0 0 0 110
16 8 0 0 0 0 130
17 8 0 0 0 0 131
18 8 0 0 0 0 130
19 8 0 0 0 0 130
0 9 0 0 0 0 130
1 9 0 0 0 0 130
2 9 0 0 0 0 132
3 9 0 0 0 0 129
4 9 0 0 0 0 115
5 9 0 0 0 0 75
6 9 0 0 0 0 47
7 9 0 0 0 0 208
8 9 0 0 0 0 224
9 9 0 0 0 0 101
10 9 0 0 0 0 74
11 9 0 0 0 0 208
12 9 0 0 0 0 228
13 9 0 0 0 0 96
14 9 0 0 0 0 55
15 9 0 0 0 0 103
16 9 0 0 0 0 122
17 9 0 0 0 0 131
18 9 0 0 0 0 130
19 9 0 0 0 0 130
0 10 0 0 0 0 130
1 10 0 0 0 0 130
2 10 0 0 0 0 131
3 10 0 0 0 0 123
4 10 0 0 0 0 106
5 10 0 0 0 0 71
6 10 0 0 0 0 56
7 10 0 0 0 0 194
8 10 0 0 0 0 205
9 10 0 0 0 0 74
10 10 0 0 0 0 49
11 10 0 0 0 0 193
12 10 0 0 0 0 211
13 10 0 0 0 0 52
14 10 0 0 0 0 64
15 10 0 0 0 0 111
16 10 0 0 0 0 123
17 10 0 0 0 0 132
18 10 0 0 0 0 130
19 10 0 0 0 0 130
0 11 0 0 0 0 130
1 11 0 0 0 0 130
2 11 0 0 0 0 130
3 11 0 0 0 0 132
4 11 0 0 0 0 113
5 11 0 0 0 0 68
6 11 0 0 0 0 130
7 11 0 0 0 0 251
8 11 0 0 0 0 255
9 11 0 0 0 0 218
10 11 0 0 0 0 192
11 11 0 0 0 0 255
12 11 0 0 0 0 216
13 11 0 0 0 0 130
14 11 0 0 0 0 68
15 11 0 0 0 0 109
16 11 0 0 0 0 132
17 11 0 0 0 0 130
18 11 0 0 0 0 130
19 11 0 0 0 0 130
0 12 0 0 0 0 130
1 12 0 0 0 0 130
2 12 0 0 0 0 130
3 12 0 0 0 0 130
4 12 0 0 0 0 121
5 12 0 0 0 0 101
6 12 0 0 0 0 109
7 12 0 0 0 0 100
8 12 0 0 0 0 192
9 12 0 0 0 0 229
10 12 0 0 0 0 213
11 12 0 0 0 0 255
12 12 0 0 0 0 102
13 12 0 0 0 0 111
14 12 0 0 0 0 95
15 12 0 0 0 0 98
16 12 0 0 0 0 120
17 12 0 0 0 0 131
18 12 0 0 0 0 130
19 12 0 0 0 0 130
0 13 0 0 0 0 130
1 13 0 0 0 0 130
2 13 0 0 0 0 130
3 13 0 0 0 0 130
4 13 0 0 0 0 111
5 13 0 0 0 0 93
6 13 0 0 0 0 87
7 13 0 0 0 0 105
8 13 0 0 0 0 133
9 13 0 0 0 0 66
10 13 0 0 0 0 74
11 13 0 0 0 0 161
12 13 0 0 0 0 112
13 13 0 0 0 0 89
14 13 0 0 0 0 105
15 13 0 0 0 0 110
16 13 0 0 0 0 127
17 13 0 0 0 0 131
18 13 0 0 0 0 130
19 13 0 0 0 0 130
0 14 0 0 0 0 130
1 14 0 0 0 0 130
2 14 0 0 0 0 130
3 14 0 0 0 0 130
4 14 0 0 0 0 120
5 14 0 0 0 0 95
6 14 0 0 0 0 103
7 14 0 0 0 0 98
8 14 0 0 0 0 75
9 14 0 0 0 0 61
10 14 0 0 0 0 60
11 14 0 0 0 0 63
12 14 0 0 0 0 99
13 14 0 0 0 0 92
14 14 0 0 0 0 94
15 14 0 0 0 0 116
16 14 0 0 0 0 130
17 14 0 0 0 0 130
18 14 0 0 0 0 130
19 14 0 0 0 0 130
0 15 0 0 0 0 130
1 15 0 0 0 0 130
2 15 0 0 0 0 130
3 15 0 0 0 0 130
4 15 0 0 0 0 132
5 15 0 0 0 0 119
6 15 0 0 0 0 110
7 15 0 0 0 0 100
8 15 0 0 0 0 105
9 15 0 0 0 0 113
10 15 0 0 0 0 103
11 15 0 0 0 0 107
12 15 0 0 0 0 117
13 15 0 0 0 0 107
14 15 0 0 0 0 115
15 15 0 0 0 0 131
16 15 0 0 0 0 131
17 15 0 0 0 0 130
18 15 0 0 0 0 130
19 15 0 0 0 0 130
0 16 0 0 0 0 130
1 16 0 0 0 0 130
2 16 0 0 0 0 130
3 16 0 0 0 0 130
4 16 0 0 0 0 130
5 16 0 0 0 0 131
6 16 0 0 0 0 127
7 16 0 0 0 0 121
8 16 0 0 0 0 129
9 16 0 0 0 0 126
10 16 0 0 0 0 119
11 16 0 0 0 0 130
12 16 0 0 0 0 129
13 16 0 0 0 0 128
14 16 0 0 0 0 130
15 16 0 0 0 0 130
16 16 0 0 0 0 130
17 16 0 0 0 0 130
18 16 0 0 0 0 130
19 16 0 0 0 0 130
0 17 0 0 0 0 130
1 17 0 0 0 0 130
2 17 0 0 0 0 130
3 17 0 0 0 0 130
4 17 0 0 0 0 130
5 17 0 0 0 0 130
6 17 0 0 0 0 131
7 17 0 0 0 0 131
8 17 0 0 0 0 130
9 17 0 0 0 0 132
10 17 0 0 0 0 131
11 17 0 0 0 0 131
12 17 0 0 0 0 130
13 17 0 0 0 0 130
14 17 0 0 0 0 130
15 17 0 0 0 0 130
16 17 0 0 0 0 130
17 17 0 0 0 0 130
18 17 0 0 0 0 130
19 17 0 0 0 0 130
0 18 0 0 0 0 130
1 18 0 0 0 0 130
2 18 0 0 0 0 130
3 18 0 0 0 0 130
4 18 0 0 0 0 130
5 18 0 0 0 0 130
6 18 0 0 0 0 130
7 18 0 0 0 0 130
8 18 0 0 0 0 130
9 18 0 0 0 0 129
10 18 0 0 0 0 130
11 18 0 0 0 0 130
12 18 0 0 0 0 130
13 18 0 0 0 0 130
14 18 0 0 0 0 130
15 18 0 0 0 0 130
16 18 0 0 0 0 130
17 18 0 0 0 0 130
18 18 0 0 0 0 130
19 18 0 0 0 0 130
0 19 0 0 0 0 130
1 19 0 0 0 0 130
2 19 0 0 0 0 130
3 19 0 0 0 0 130
4 19 0 0 0 0 130
5 19 0 0 0 0 130
6 19 0 0 0 0 130
7 19 0 0 0 0 130
8 19 0 0 0 0 130
9 19 0 0 0 0 130
10 19 0 0 0 0 130
11 19 0 0 0 0 130
12 19 0 0 0 0 130
13 19 0 0 0 0 130
14 19 0 0 0 0 130
15 19 0 0 0 0 130
16 19 0 0 0 0 130
17 19 0 0 0 0 130
18 19 0 0 0 0 130
19 19 0 0 0 0 130
4 0 1 21 20
4 1 2 22 21
4 2 3 23 22
4 3 4 24 23
4 4 5 25 24
4 5 6 26 25
4 6 7 27 26
4 7 8 28 27
4 8 9 29 28
4 9 10 30 29
4 10 11 31 30
4 11 12 32 31
4 12 13 33 32
4 13 14 34 33
4 14 15 35 34
4 15 16 36 35
4 16 17 37 36
4 17 18 38 37
4 18 19 39 38
4 20 21 41 40
4 21 22 42 41
4 22 23 43 42
4 23 24 44 43
4 24 25 45 44
4 25 26 46 45
4 26 27 47 46
4 27 28 48 47
4 28 29 49 48
4 29 30 50 49
4 30 31 51 50
4 31 32 52 51
4 32 33 53 52
4 33 34 54 53
4 34 35 55 54
4 35 36 56 55
4 36 37 57 56
4 37 38 58 57
4 38 39 59 58
4 40 41 61 60
4 41 42 62 61
4 42 43 63 62
4 43 44 64 63
4 44 45 65 64
4 45 46 66 65
4 46 47 67 66
4 47 48 68 67
4 48 49 69 68
4 49 50 70 69
4 50 51 71 70
4 51 52 72 71
4 52 53 73 72
4 53 54 74 73
4 54 55 75 74
4 55 56 76 75
4 56 57 77 76
4 57 58 78 77
4 58 59 79 78
4 60 61 81 80
4 61 62 82 81
4 62 63 83 82
4 63 64 84 83
4 64 65 85 84
4 65 66 86 85
4 66 67 87 86
4 67 68 88 87
4 68 69 89 88
4 69 70 90 89
4 70 71 91 90
4 71 72 92 91
4 72 73 93 92
4 73 74 94 93
4 74 75 95 94
4 75 76 96 95
4 76 77 97 96
4 77 78 98 97
4 78 79 99 98
4 80 81 101 100
4 81 82 102 101
4 82 83 103 102
4 83 84 104 103
4 84 85 105 104
4 85 86 106 105
4 86 87 107 106
4 87 88 108 107
4 88 89 109 108
4 89 90 110 109
4 90 91 111 110
4 91 92 112 111
4 92 93 113 112
4 93 94 114 113
4 94 95 115 114
4 95 96 116 115
4 96 97 117 116
4 97 98 118 117
4 98 99 119 118
4 100 101 121 120
4 101 102 122 121
4 102 103 123 122
4 103 104 124 123
4 104 105 125 124
4 105 106 126 125
4 106 107 127 126
4 107 108 128 127
4 108 109 129 128
4 109 110 130 129
4 110 111 131 130
4 111 112 132 131
4 112 113 133 132
4 113 114 134 133
4 114 115 135 134
4 115 116 136 135
4 116 117 137 136
4 117 118 138 137
4 118 119 139 138
4 120 121 141 140
4 121 122 142 141
4 122 123 143 142
4 123 124 144 143
4 124 125 145 144
4 125 126 146 145
4 126 127 147 146
4 127 128 148 147
4 128 129 149 148
4 129 130 150 149
4 130 131 151 150
4 131 132 152 151
4 132 133 153 152
4 133 134 154 153
4 134 135 155 154
4 135 136 156 155
4 136 137 157 156
4 137 138 158 157
4 138 139 159 158
4 140 141 161 160
4 141 142 162 161
4 142 143 163 162
4 143 144 164 163
4 144 145 165 164
4 145 146 166 165
4 146 147 167 166
4 147 148 168 167
4 148 149 169 168
4 149 150 170 169
4 150 151 171 170
4 151 152 172 171
4 152 153 173 172
4 153 154 174 173
4 154 155 175 174
4 155 156 176 175
4 156 157 177 176
4 157 158 178 177
4 158 159 179 178
4 160 161 181 180
4 161 162 182 181
4 162 163 183 182
4 163 164 184 183
4 164 165 185 184
4 165 166 186 185
4 166 167 187 186
4 167 168 188 187
4 168 169 189 188
4 169 170 190 189
4 170 171 191 190
4 171 172 192 191
4 172 173 193 192
4 173 174 194 193
4 174 175 195 194
4 175 176 196 195
4 176 177 197 196
4 177 178 198 197
4 178 179 199 198
4 180 181 201 200
4 181 182 202 201
4 182 183 203 202
4 183 184 204 203
4 184 185 205 204
4 185 186 206 205
4 186 187 207 206
4 187 188 208 207
4 188 189 209 208
4 189 190 210 209
4 190 191 211 210
4 191 192 212 211
4 192 193 213 212
4 193 194 214 213
4 194 195 215 214
4 195 196 216 215
4 196 197 217 216
4 197 198 218 217
4 198 199 219 218
4 200 201 221 220
4 201 202 222 221
4 202 203 223 222
4 203 204 224 223
4 204 205 225 224
4 205 206 226 225
4 206 207 227 226
4 207 208 228 227
4 208 209 229 228
4 209 210 230 229
4 210 211 231 230
4 211 212 232 231
4 212 213 233 232
4 213 214 234 233
4 214 215 235 234
4 215 216 236 235
4 216 217 237 236
4 217 218 238 237
4 218 219 239 238
4 220 221 241 240
4 221 222 242 241
4 222 223 243 242
4 223 224 244 243
4 224 225 245 244
4 225 226 246 245
4 226 227 247 246
4 227 228 248 247
4 228 229 249 248
4 229 230 250 249
4 230 231 251 250
4 231 232 252 251
4 232 233 253 252
4 233 234 254 253
4 234 235 255 254
4 235 236 256 255
4 236 237 257 256
4 237 238 258 257
4 238 239 259 258
4 240 241 261 260
4 241 242 262 261
4 242 243 263 262
4 243 244 264 263
4 244 245 265 264
4 245 246 266 265
4 246 247 267 266
4 247 248 268 267
4 248 249 269 268
4 249 250 270 269
4 250 251 271 270
4 251 252 272 271
4 252 253 273 272
4 253 254 274 273
4 254 255 275 274
4 255 256 276 275
4 256 257 277 276
4 257 258 278 277
4 258 259 279 278
4 260 261 281 280
4 261 262 282 281
4 262 263 283 282
4 263 264 284 283
4 264 265 285 284
4 265 266 286 285
4 266 267 287 286
4 267 268 288 287
4 268 269 289 288
4 269 270 290 289
4 270 271 291 290
4 271 272 292 291
4 272 273 293 292
4 273 274 294 293
4 274 275 295 294
4 275 276 296 295
4 276 277 297 296
4 277 278 298 297
4 278 279 299 298
4 280 281 301 300
4 281 282 302 301
4 282 283 303 302
4 283 284 304 303
4 284 285 305 304
4 285 286 306 305
4 286 287 307 306
4 287 288 308 307
4 288 289 309 308
4 289 290 310 309
4 290 291 311 310
4 291 292 312 311
4 292 293 313 312
4 293 294 314 313
4 294 295 315 314
4 295 296 316 315
4 296 297 317 316
4 297 298 318 317
4 298 299 319 318
4 300 301 321 320
4 301 302 322 321
4 302 303 323 322
4 303 304 324 323
4 304 305 325 324
4 305 306 326 325
4 306 307 327 326
4 307 308 328 327
4 308 309 329 328
4 309 310 330 329
4 310 311 331 330
4 311 312 332 331
4 312 313 333 332
4 313 314 334 333
4 314 315 335 334
4 315 316 336 335
4 316 317 337 336
4 317 318 338 337
4 318 319 339 338
4 320 321 341 340
4 321 322 342 341
4 322 323 343 342
4 323 324 344 343
4 324 325 345 344
4 325 326 346 345
4 326 327 347 346
4 327 328 348 347
4 328 329 349 348
4 329 330 350 349
4 330 331 351 350
4 331 332 352 351
4 332 333 353 352
4 333 334 354 353
4 334 335 355 354
4 335 336 356 355
4 336 337 357 356
4 337 338 358 357
4 338 339 359 358
4 340 341 361 360
4 341 342 362 361
4 342 343 363 362
4 343 344 364 363
4 344 345 365 364
4 345 346 366 365
4 346 347 367 366
4 347 348 368 367
4 348 349 369 368
4 349 350 370 369
4 350 351 371 370
4 351 352 372 371
4 352 353 373 372
4 353 354 374 373
4 354 355 375 374
4 355 356 376 375
4 356 357 377 376
4 357 358 378 377
4 358 359 379 378
4 360 361 381 380
4 361 362 382 381
4 362 363 383 382
4 363 364 384 383
4 364 365 385 384
4 365 366 386 385
4 366 367 387 386
4 367 368 388 387
4 368 369 389 388
4 369 370 390 389
4 370 371 391 390
4 371 372 392 391
4 372 373 393 392
4 373 374 394 393
4 374 375 395 394
4 375 376 396 395
4 376 377 397 396
4 377 378 398 397
4 378 379 399 398
